<svg width="18" height="20" viewBox="0 0 18 20" fill="none" xmlns="http://www.w3.org/2000/svg"><path fill-rule="evenodd" clip-rule="evenodd" d="M12.571 2.25h1.715c.947 0 1.714.756 1.714 1.688V7.5a.5.5 0 0 1-.5.5h-.143a.5.5 0 0 1-.5-.5v-.75H1.143v9.563c0 .31.256.562.571.562H5.5a.5.5 0 0 1 .5.5v.125a.5.5 0 0 1-.5.5H1.714C.767 18 0 17.244 0 16.312V3.938C0 3.006.767 2.25 1.714 2.25H3.43V.422c0-.233.191-.422.428-.422h.286c.237 0 .428.189.428.422V2.25h6.858V.422c0-.233.191-.422.428-.422h.286c.236 0 .428.189.428.422V2.25Zm1.715 1.125H1.714a.568.568 0 0 0-.571.563v1.687h13.714V3.937a.568.568 0 0 0-.571-.562Z" fill="#000"/><path d="M14.885 11.319a3.584 3.584 0 0 0-2.468-.973A3.614 3.614 0 0 0 8.92 13.07a.258.258 0 0 1-.25.197H7.437a.258.258 0 0 1-.253-.305 5.33 5.33 0 0 1 8.916-2.86l.767-.768a.516.516 0 0 1 .88.365v2.88c0 .285-.23.516-.515.516h-2.88a.516.516 0 0 1-.365-.88l.897-.897Zm-7.277 3.496h2.88c.46 0 .69.555.365.88l-.897.897a3.584 3.584 0 0 0 2.468.973 3.614 3.614 0 0 0 3.497-2.726.258.258 0 0 1 .25-.196h1.232c.16 0 .283.146.253.304a5.33 5.33 0 0 1-8.916 2.86l-.767.768a.516.516 0 0 1-.88-.365v-2.88c0-.285.23-.515.515-.515Z" fill="#57A92B"/></svg>