<svg width="16" height="18" viewBox="0 0 16 18" fill="none" xmlns="http://www.w3.org/2000/svg"><path fill-rule="evenodd" clip-rule="evenodd" d="M12.571 2.25h1.715c.947 0 1.714.756 1.714 1.688V7.5a.5.5 0 0 1-.5.5h-.143a.5.5 0 0 1-.5-.5v-.75H1.143v9.563c0 .31.256.562.571.562H5.5a.5.5 0 0 1 .5.5v.125a.5.5 0 0 1-.5.5H1.714C.767 18 0 17.244 0 16.312V3.938C0 3.006.767 2.25 1.714 2.25H3.43V.422c0-.233.191-.422.428-.422h.286c.237 0 .428.189.428.422V2.25h6.858V.422c0-.233.191-.422.428-.422h.286c.236 0 .428.189.428.422V2.25Zm1.715 1.125H1.714a.568.568 0 0 0-.571.563v1.687h13.714V3.937a.568.568 0 0 0-.571-.562Z" fill="#000"/></svg>