<svg width="11" height="12" viewBox="0 0 11 12" fill="none" xmlns="http://www.w3.org/2000/svg">
<path d="M7.88511 3.31862C7.21346 2.68973 6.34184 2.34499 5.41716 2.34581C3.75302 2.34727 2.31636 3.48831 1.91969 5.0711C1.89082 5.18632 1.78817 5.26769 1.66938 5.26769H0.43826C0.27717 5.26769 0.154795 5.12144 0.184594 4.96312C0.649451 2.49457 2.8168 0.627061 5.42042 0.627061C6.84802 0.627061 8.14445 1.18858 9.10102 2.10272L9.86833 1.3354C10.1932 1.01058 10.7485 1.24063 10.7485 1.70001V4.58019C10.7485 4.86496 10.5177 5.09581 10.2329 5.09581H7.35275C6.89337 5.09581 6.66331 4.54042 6.98814 4.21557L7.88511 3.31862ZM0.607922 6.81456H3.4881C3.94747 6.81456 4.17753 7.36995 3.85271 7.6948L2.95573 8.59177C3.62738 9.22068 4.49906 9.56542 5.42377 9.56458C7.08705 9.56308 8.52429 8.42282 8.92115 6.83931C8.95003 6.72409 9.05268 6.64273 9.17146 6.64273H10.4026C10.5637 6.64273 10.6861 6.78897 10.6563 6.94729C10.1914 9.4158 8.02405 11.2833 5.42042 11.2833C3.99283 11.2833 2.6964 10.7218 1.73983 9.80766L0.972512 10.575C0.647689 10.8998 0.0922969 10.6697 0.0922969 10.2104V7.33019C0.0922969 7.04541 0.323146 6.81456 0.607922 6.81456Z" fill="#57A92B"/>
</svg>
