<svg viewBox="0 0 500 500" xmlns="http://www.w3.org/2000/svg"><path fill="#cc181e" d="M453.162 236.845l42.652-42.65c2.403-2.405 2.403-6.361 0-8.764l-8.763-8.763c-2.404-2.405-6.36-2.405-8.763 0l-42.653 42.652-42.653-42.652c-2.403-2.405-6.359-2.405-8.764 0l-8.762 8.763c-2.404 2.403-2.404 6.359 0 8.764l42.653 42.65-42.653 42.653c-2.404 2.406-2.404 6.36 0 8.764l8.762 8.763c2.405 2.404 6.361 2.404 8.764 0l42.653-42.653 42.653 42.653c2.403 2.404 6.359 2.404 8.763 0l8.763-8.763c2.403-2.404 2.403-6.358 0-8.764l-42.652-42.653zm-278.096 12.409c54.828 0 99.265-44.436 99.265-99.264 0-54.828-44.437-99.264-99.265-99.264-54.827 0-99.264 44.436-99.264 99.264 0 54.828 44.437 99.264 99.264 99.264zm0-173.711c41.025 0 74.448 33.424 74.448 74.447 0 41.025-33.423 74.449-74.448 74.449-41.024 0-74.448-33.424-74.448-74.449 0-41.023 33.424-74.447 74.448-74.447zm69.485 198.528c-22.257 0-32.958 12.407-69.485 12.407s-47.15-12.407-69.485-12.407c-57.541 0-104.227 46.684-104.227 104.227v32.261c0 20.551 16.672 37.224 37.223 37.224h272.977c20.551 0 37.225-16.673 37.225-37.224v-32.261c0-57.543-46.686-104.227-104.228-104.227zm79.412 136.488c0 6.825-5.584 12.409-12.409 12.409H38.577c-6.823 0-12.407-5.584-12.407-12.409v-32.261c0-43.816 35.596-79.412 79.411-79.412 15.2 0 30.321 12.409 69.485 12.409 39.086 0 54.286-12.409 69.485-12.409 43.816 0 79.412 35.596 79.412 79.412v32.261z"/></svg>