<svg width="11" height="12" viewBox="0 0 11 12" fill="none" xmlns="http://www.w3.org/2000/svg">
<path fill-rule="evenodd" clip-rule="evenodd" d="M4.45117 1.58112C4.45117 1.09479 4.84546 0.700562 5.33179 0.700562C5.81799 0.700562 6.21228 1.09479 6.21228 1.58112V6.48364C6.21228 6.96997 5.81799 7.3642 5.33179 7.3642C4.84546 7.3642 4.45117 6.96997 4.45117 6.48364V1.58112ZM5.33179 11.2783C8.25403 11.2783 10.6229 8.90936 10.6229 5.98712C10.6229 3.81256 9.49304 2.01599 7.61755 1.20239C7.47437 1.14026 7.22693 1.13605 7.09802 1.27277C7.03528 1.33929 7.00964 1.41785 6.99976 1.48096C6.98938 1.54749 6.99658 1.5968 6.99658 1.5968V2.41888C6.99658 2.41888 6.99658 2.71417 7.09802 2.81964C7.18311 2.90814 7.19385 2.91498 7.2511 2.95135L7.29004 2.97632C8.27307 3.61707 8.92297 4.7262 8.92297 5.98712C8.92297 7.97052 7.31506 9.57837 5.33179 9.57837C3.34802 9.578 1.73999 7.96985 1.73999 5.98615C1.73999 4.72498 2.38989 3.6156 3.37317 2.97479L3.41211 2.94983C3.46936 2.91339 3.4801 2.90662 3.56519 2.81805C3.66663 2.71259 3.66663 2.41724 3.66663 2.41724V1.59497C3.66663 1.59497 3.69409 1.40765 3.56519 1.27087C3.43628 1.13416 3.18884 1.13837 3.04553 1.2005C1.1698 2.01428 0.0396729 3.81116 0.0396729 5.98615C0.0396729 8.90894 2.40906 11.2783 5.33179 11.2783Z" fill="#D9D9D9"/>
</svg>
